<svg width="164" height="37" viewBox="0 0 164 37" fill="none" xmlns="http://www.w3.org/2000/svg">
<path fill-rule="evenodd" clip-rule="evenodd" d="M38.2595 3.06239C37.3194 2.59024 36.1561 2.45109 34.8561 2.68757C34.0546 2.83396 33.2 3.12352 32.3138 3.56511C31.463 3.99061 30.6484 4.52389 29.8766 5.14244L33.0075 6.71574C33.7793 6.0972 34.5939 5.56391 35.4438 5.13922C36.33 4.69683 37.1836 4.40726 37.9861 4.26087C39.2861 4.02439 40.4494 4.16354 41.3895 4.6357L38.2595 3.06239Z" fill="#F0A72E"/>
<mask id="mask0" mask-type="alpha" maskUnits="userSpaceOnUse" x="0" y="0" width="31" height="35">
<path fill-rule="evenodd" clip-rule="evenodd" d="M0 0.609169H30.3026V34.2347H0V0.609169Z" fill="white"/>
</mask>
<g mask="url(#mask0)">
<path fill-rule="evenodd" clip-rule="evenodd" d="M27.1726 1.17282C26.0865 0.626667 24.7409 0.466602 23.2382 0.74008C22.3102 0.908993 21.3217 1.2436 20.2961 1.75597C18.5898 2.60858 16.9876 3.84728 15.5983 5.31199C13.0421 8.00736 11.2065 11.4677 10.762 14.6891C9.99487 14.8387 9.17285 15.1226 8.32945 15.5441C6.85838 16.2785 5.47751 17.345 4.28075 18.6063C1.71614 21.3064 -0.00971918 24.8971 -0.000420372 28.0228C0.00794856 30.3023 0.9369 31.9069 2.4368 32.6606L5.56678 34.2347C4.06595 33.4803 3.137 31.8756 3.12956 29.5961C3.11933 26.4704 4.84612 22.8798 7.4098 20.1796C8.60749 18.9183 9.98743 17.8518 11.4594 17.1174C12.3019 16.6959 13.1248 16.412 13.8911 16.2624C14.3356 13.041 16.1721 9.58067 18.7283 6.8853C20.1176 5.42058 21.7188 4.18188 23.4261 3.32928C24.4508 2.81691 25.4393 2.4823 26.3673 2.31338C27.8709 2.0391 29.2155 2.19997 30.3025 2.74612L27.1726 1.17282Z" fill="#F0A72E"/>
</g>
<path fill-rule="evenodd" clip-rule="evenodd" d="M23.4258 3.32944C28.2668 0.911568 32.2895 2.44465 33.0073 6.71574C33.7791 6.0972 34.5937 5.56392 35.4436 5.13922C40.0577 2.83476 43.8125 4.68557 43.8274 9.27115C43.8423 13.8575 40.1116 19.4462 35.4975 21.7506L11.5131 33.729C6.89254 36.0366 3.14419 34.1826 3.12932 29.5962C3.11444 25.0098 6.83768 19.4252 11.4583 17.1176C12.3026 16.6961 13.1246 16.4122 13.8908 16.2625C14.5771 11.2901 18.5774 5.75052 23.4258 3.32944Z" fill="#FFCA00"/>
<path fill-rule="evenodd" clip-rule="evenodd" d="M62.7052 5.31441C61.7651 4.84225 60.6018 4.7031 59.3019 4.93958C58.4994 5.08597 57.6457 5.37554 56.7586 5.81712C55.9087 6.24182 55.0942 6.77591 54.3224 7.39445L57.4523 8.96775C58.2241 8.34921 59.0387 7.81512 59.8896 7.39123C60.7748 6.94804 61.6294 6.65928 62.4309 6.51288C63.7318 6.27641 64.8942 6.41556 65.8343 6.88771L62.7052 5.31441Z" fill="#D43E3E"/>
<path fill-rule="evenodd" clip-rule="evenodd" d="M51.6138 3.41977C50.5277 2.87361 49.1821 2.71274 47.6795 2.98622C46.7514 3.15514 45.7648 3.48974 44.741 4.00131C43.0403 4.8507 41.4427 6.08618 40.0563 7.54848C37.4982 10.2463 35.6589 13.713 35.2135 16.9376C34.4398 17.0905 33.6243 17.3712 32.7744 17.7959C31.3052 18.5294 29.9262 19.596 28.7294 20.8564C26.1648 23.5566 24.4352 27.1488 24.4454 30.2745C24.4529 32.5532 25.3837 34.1563 26.8827 34.9108L30.0126 36.4833C28.5127 35.7296 27.5819 34.1265 27.5745 31.8478C27.5643 28.7221 29.2948 25.1299 31.8585 22.4297C33.0561 21.1685 34.4352 20.1027 35.9034 19.3692C36.7552 18.9445 37.5698 18.6638 38.3434 18.5109C38.7889 15.2855 40.6282 11.8196 43.1863 9.12179C44.5727 7.65948 46.1703 6.42401 47.871 5.57381C48.8939 5.06305 49.8814 4.72844 50.8085 4.55953C52.3121 4.28605 53.6567 4.44692 54.7438 4.99307L51.6138 3.41977Z" fill="#D43E3E"/>
<path fill-rule="evenodd" clip-rule="evenodd" d="M47.8706 5.57397C52.7116 3.1569 56.7352 4.69643 57.4521 8.96751C58.2239 8.34897 59.0385 7.81569 59.8893 7.39099C64.5034 5.08653 68.2573 6.93734 68.2722 11.5229C68.2871 16.1093 64.5573 21.6979 59.9433 24.0024L35.9579 35.9807C31.3448 38.2852 27.5899 36.4344 27.5751 31.848C27.5602 27.2616 31.2899 21.673 35.904 19.3685C36.7548 18.9446 37.5703 18.6639 38.3431 18.5103C39.0293 13.5386 43.0297 7.99184 47.8706 5.57397Z" fill="#FA7564"/>
<path d="M81.9397 26V12.92H86.3597C87.0397 12.92 87.6731 12.9867 88.2597 13.12C88.8464 13.2533 89.3531 13.4733 89.7797 13.78C90.2064 14.0733 90.5397 14.4667 90.7797 14.96C91.0331 15.4533 91.1597 16.0667 91.1597 16.8C91.1597 17.8 90.9197 18.6067 90.4397 19.22C89.9731 19.8333 89.3464 20.2733 88.5597 20.54L91.6797 26H89.0797L86.2597 20.88H84.2597V26H81.9397ZM84.2597 19.04H86.1197C87.0131 19.04 87.6931 18.8533 88.1597 18.48C88.6397 18.1067 88.8797 17.5467 88.8797 16.8C88.8797 16.04 88.6397 15.5133 88.1597 15.22C87.6931 14.9267 87.0131 14.78 86.1197 14.78H84.2597V19.04ZM97.0506 26.24C96.4372 26.24 95.8506 26.1267 95.2906 25.9C94.7306 25.6733 94.2306 25.34 93.7906 24.9C93.3639 24.46 93.0239 23.92 92.7706 23.28C92.5172 22.64 92.3906 21.9133 92.3906 21.1C92.3906 20.2867 92.5172 19.56 92.7706 18.92C93.0239 18.28 93.3639 17.74 93.7906 17.3C94.2306 16.86 94.7306 16.5267 95.2906 16.3C95.8506 16.06 96.4372 15.94 97.0506 15.94C97.6639 15.94 98.2506 16.06 98.8106 16.3C99.3839 16.5267 99.8839 16.86 100.311 17.3C100.737 17.74 101.077 18.28 101.331 18.92C101.597 19.56 101.731 20.2867 101.731 21.1C101.731 21.9133 101.597 22.64 101.331 23.28C101.077 23.92 100.737 24.46 100.311 24.9C99.8839 25.34 99.3839 25.6733 98.8106 25.9C98.2506 26.1267 97.6639 26.24 97.0506 26.24ZM97.0506 24.36C97.7706 24.36 98.3372 24.0667 98.7506 23.48C99.1639 22.88 99.3706 22.0867 99.3706 21.1C99.3706 20.1 99.1639 19.3067 98.7506 18.72C98.3372 18.12 97.7706 17.82 97.0506 17.82C96.3306 17.82 95.7639 18.12 95.3506 18.72C94.9506 19.3067 94.7506 20.1 94.7506 21.1C94.7506 22.0867 94.9506 22.88 95.3506 23.48C95.7639 24.0667 96.3306 24.36 97.0506 24.36ZM106.319 26.24C105.639 26.24 104.966 26.1133 104.299 25.86C103.646 25.5933 103.079 25.2667 102.599 24.88L103.679 23.4C104.119 23.7467 104.553 24.02 104.979 24.22C105.419 24.4067 105.893 24.5 106.399 24.5C106.933 24.5 107.326 24.3933 107.579 24.18C107.833 23.9533 107.959 23.6667 107.959 23.32C107.959 23.12 107.899 22.9467 107.779 22.8C107.659 22.64 107.499 22.5 107.299 22.38C107.099 22.26 106.873 22.1533 106.619 22.06C106.366 21.9533 106.113 21.8467 105.859 21.74C105.539 21.62 105.213 21.48 104.879 21.32C104.546 21.16 104.246 20.9667 103.979 20.74C103.726 20.5133 103.513 20.2533 103.339 19.96C103.179 19.6533 103.099 19.2933 103.099 18.88C103.099 18.0133 103.419 17.3067 104.059 16.76C104.699 16.2133 105.573 15.94 106.679 15.94C107.359 15.94 107.973 16.06 108.519 16.3C109.066 16.54 109.539 16.8133 109.939 17.12L108.879 18.52C108.533 18.2667 108.179 18.0667 107.819 17.92C107.473 17.76 107.106 17.68 106.719 17.68C106.226 17.68 105.859 17.7867 105.619 18C105.393 18.2 105.279 18.4533 105.279 18.76C105.279 18.96 105.333 19.1333 105.439 19.28C105.559 19.4133 105.713 19.5333 105.899 19.64C106.086 19.7467 106.299 19.8467 106.539 19.94C106.793 20.0333 107.053 20.1267 107.319 20.22C107.653 20.34 107.986 20.48 108.319 20.64C108.653 20.7867 108.953 20.9733 109.219 21.2C109.499 21.4267 109.719 21.7067 109.879 22.04C110.053 22.36 110.139 22.7467 110.139 23.2C110.139 23.6267 110.053 24.0267 109.879 24.4C109.719 24.76 109.479 25.08 109.159 25.36C108.839 25.6267 108.439 25.84 107.959 26C107.479 26.16 106.933 26.24 106.319 26.24ZM114.583 26.24C113.903 26.24 113.229 26.1133 112.563 25.86C111.909 25.5933 111.343 25.2667 110.863 24.88L111.943 23.4C112.383 23.7467 112.816 24.02 113.243 24.22C113.683 24.4067 114.156 24.5 114.663 24.5C115.196 24.5 115.589 24.3933 115.843 24.18C116.096 23.9533 116.223 23.6667 116.223 23.32C116.223 23.12 116.163 22.9467 116.043 22.8C115.923 22.64 115.763 22.5 115.563 22.38C115.363 22.26 115.136 22.1533 114.883 22.06C114.629 21.9533 114.376 21.8467 114.123 21.74C113.803 21.62 113.476 21.48 113.143 21.32C112.809 21.16 112.509 20.9667 112.243 20.74C111.989 20.5133 111.776 20.2533 111.603 19.96C111.443 19.6533 111.363 19.2933 111.363 18.88C111.363 18.0133 111.683 17.3067 112.323 16.76C112.963 16.2133 113.836 15.94 114.943 15.94C115.623 15.94 116.236 16.06 116.783 16.3C117.329 16.54 117.803 16.8133 118.203 17.12L117.143 18.52C116.796 18.2667 116.443 18.0667 116.083 17.92C115.736 17.76 115.369 17.68 114.983 17.68C114.489 17.68 114.123 17.7867 113.883 18C113.656 18.2 113.543 18.4533 113.543 18.76C113.543 18.96 113.596 19.1333 113.703 19.28C113.823 19.4133 113.976 19.5333 114.163 19.64C114.349 19.7467 114.563 19.8467 114.803 19.94C115.056 20.0333 115.316 20.1267 115.583 20.22C115.916 20.34 116.249 20.48 116.583 20.64C116.916 20.7867 117.216 20.9733 117.483 21.2C117.763 21.4267 117.983 21.7067 118.143 22.04C118.316 22.36 118.403 22.7467 118.403 23.2C118.403 23.6267 118.316 24.0267 118.143 24.4C117.983 24.76 117.743 25.08 117.423 25.36C117.103 25.6267 116.703 25.84 116.223 26C115.743 26.16 115.196 26.24 114.583 26.24ZM125.206 26.24C124.446 26.24 123.76 26.1333 123.146 25.92C122.546 25.6933 122.026 25.34 121.586 24.86C121.16 24.38 120.826 23.7667 120.586 23.02C120.36 22.26 120.246 21.34 120.246 20.26V12.92H122.566V20.44C122.566 21.1467 122.626 21.7467 122.746 22.24C122.88 22.72 123.06 23.1067 123.286 23.4C123.526 23.6933 123.806 23.9067 124.126 24.04C124.446 24.16 124.806 24.22 125.206 24.22C125.606 24.22 125.973 24.16 126.306 24.04C126.64 23.9067 126.926 23.6933 127.166 23.4C127.406 23.1067 127.593 22.72 127.726 22.24C127.86 21.7467 127.926 21.1467 127.926 20.44V12.92H130.146V20.26C130.146 21.34 130.033 22.26 129.806 23.02C129.58 23.7667 129.246 24.38 128.806 24.86C128.38 25.34 127.86 25.6933 127.246 25.92C126.646 26.1333 125.966 26.24 125.206 26.24ZM133.062 26V12.92H137.182C137.902 12.92 138.569 12.9867 139.182 13.12C139.809 13.2533 140.349 13.48 140.802 13.8C141.255 14.12 141.609 14.54 141.862 15.06C142.115 15.5667 142.242 16.2 142.242 16.96C142.242 17.68 142.115 18.3067 141.862 18.84C141.609 19.3733 141.255 19.82 140.802 20.18C140.362 20.5267 139.835 20.7867 139.222 20.96C138.622 21.12 137.969 21.2 137.262 21.2H135.382V26H133.062ZM135.382 19.34H137.082C139.002 19.34 139.962 18.5467 139.962 16.96C139.962 16.1333 139.709 15.5667 139.202 15.26C138.709 14.94 137.975 14.78 137.002 14.78H135.382V19.34Z" fill="white"/>
</svg>
